<svg xmlns="http://www.w3.org/2000/svg" width="53.454" height="53.442" viewBox="0 0 53.454 53.442"><defs><style>.a{fill:#fff;}</style></defs><path class="a" d="M26.728,15.257a13.7,13.7,0,1,0,13.7,13.7A13.68,13.68,0,0,0,26.728,15.257Zm0,22.61a8.908,8.908,0,1,1,8.908-8.908,8.924,8.924,0,0,1-8.908,8.908ZM44.186,14.7a3.2,3.2,0,1,1-3.2-3.2A3.188,3.188,0,0,1,44.186,14.7Zm9.075,3.244c-.2-4.281-1.181-8.073-4.317-11.2s-6.917-4.1-11.2-4.317c-4.412-.25-17.637-.25-22.049,0-4.269.2-8.061,1.181-11.2,4.3S.4,13.647.183,17.928c-.25,4.412-.25,17.637,0,22.049.2,4.281,1.181,8.073,4.317,11.2s6.917,4.1,11.2,4.317c4.412.25,17.637.25,22.049,0,4.281-.2,8.073-1.181,11.2-4.317s4.1-6.917,4.317-11.2c.25-4.412.25-17.625,0-22.037Zm-5.7,26.772a9.019,9.019,0,0,1-5.08,5.08c-3.518,1.4-11.865,1.073-15.753,1.073s-12.247.31-15.753-1.073a9.019,9.019,0,0,1-5.08-5.08C4.5,41.194,4.821,32.846,4.821,28.959s-.31-12.247,1.073-15.753a9.019,9.019,0,0,1,5.08-5.08c3.518-1.4,11.865-1.073,15.753-1.073s12.247-.31,15.753,1.073a9.019,9.019,0,0,1,5.08,5.08c1.4,3.518,1.073,11.865,1.073,15.753S48.956,41.206,47.561,44.712Z" transform="translate(0.005 -2.238)"/></svg>